<?xml version="1.0"?>
<svg xmlns="http://www.w3.org/2000/svg" xmlns:xlink="http://www.w3.org/1999/xlink" xmlns:svgjs="http://svgjs.com/svgjs" version="1.1" width="512" height="512" x="0" y="0" viewBox="0 0 32 32" style="enable-background:new 0 0 512 512" xml:space="preserve" class=""><g><g xmlns="http://www.w3.org/2000/svg" id="Message"><path d="m29.992 18.741v-9.042c0-3.651-2.97-6.621-6.621-6.621l-14.964.004c-.151-.014-1.505-.103-2.568.871-.746.682-1.127 1.676-1.141 2.948-1.569.734-2.666 2.316-2.666 4.16v9.079c0 2.537 2.064 4.601 4.602 4.601h3.669l-.005 2.484c0 1.117.76 1.702 1.511 1.702.349 0 .71-.121 1.046-.349.028-.02.056-.041.082-.063l4.478-3.774h4.526c1.839 0 3.417-1.091 4.153-2.653.195.02.394.044.577.044.971 0 1.759-.28 2.351-.836 1.071-1.01.981-2.475.97-2.555zm-22.126-.831c-1.232 0-2.235-1.003-2.235-2.236s1.003-2.236 2.235-2.236c1.233 0 2.236 1.002 2.236 2.236s-1.002 2.236-2.236 2.236zm6.429 0c-1.233 0-2.236-1.003-2.236-2.236s1.003-2.236 2.236-2.236c1.232 0 2.236 1.002 2.236 2.236s-1.004 2.236-2.236 2.236zm6.413 0c-1.233 0-2.235-1.003-2.235-2.236s1.002-2.236 2.235-2.236 2.236 1.002 2.236 2.236-1.003 2.236-2.236 2.236zm6.942 1.928c-.263.248-.697.303-1.108.288v-9.065c0-2.537-2.064-4.602-4.602-4.602h-15.214c.063-.453.213-.796.452-1.021.425-.398 1.059-.362 1.141-.36h15.053c2.548 0 4.621 2.073 4.621 4.621l.004 9.125c-.001.007.023.667-.347 1.014z" fill="#757575" data-original="#000000" style="" class=""/></g></g></svg>
