<?xml version="1.0" encoding="UTF-8"?><svg id="Calque_2" xmlns="http://www.w3.org/2000/svg" viewBox="0 0 525.7 525.83"><defs><style>.cls-1{fill:#fdf6ed;}</style></defs><g id="Calque_1-2"><path class="cls-1" d="m525.7,13.77c-.14.67-.46,2.8-1.04,4.86-46.79,165.25-93.6,330.49-140.36,495.74-1.6,5.64-4,10.39-10.37,11.32-6.44.94-9.98-3.03-13.01-8.07-42.97-71.53-85.99-143.03-129.13-214.46-1.79-2.96-4.55-5.76-7.52-7.52-71.72-42.61-143.54-85.06-215.33-127.54-1-.59-2.01-1.18-2.98-1.81-4.06-2.65-6.5-6.21-5.85-11.25.68-5.24,3.98-8.22,8.88-9.63,12.76-3.69,25.53-7.36,38.29-11.04C187.49,93.89,327.72,53.41,467.94,12.94c14.2-4.1,28.38-8.23,42.58-12.33,8.57-2.47,15.22,2.66,15.17,13.16Zm-34.23,39.01c-79.8,79.33-159.88,158.92-240.18,238.75,38.85,64.89,77.54,129.51,116.87,195.2,41.43-145.81,82.49-290.28,123.31-433.95Zm-17.11-17.89C329.33,76.69,185.01,118.28,39.53,160.2c66.04,38.88,130.83,77.02,194.88,114.72,80.16-80.19,159.74-159.79,239.96-240.04Z"/></g></svg>